# xmcd
#
# Track frame offsets: 
#        182
#        12545
#        22757
#        33037
#        47127
#        55717
#        67102
#        82395
#        93962
#        105435
#
# Disc length: 1547 seconds
#
# Revision: 1
# Processed by: cddbd v1.5.2PL0 Copyright (c) Steve Scherf et al.
# Submitted via: ExactAudioCopyFreeDBPlugin 1.0
#
DISCID=7606090a
DTITLE=Merle Haggard - A Christmas Present
DYEAR=1990
DGENRE=Holiday
TTITLE0=If We Make it Through December
TTITLE1=Santa Claus and Popcorn
TTITLE2=Bobby Wants A Puppy Dog for Christmas
TTITLE3=Daddy Won't Be Home for Christmas
TTITLE4=Grandma's Christmas Card
TTITLE5=White Christmas
TTITLE6=Silver Bells
TTITLE7=Winter Wonderland
TTITLE8=Silent Night
TTITLE9=Jingle Bells
EXTD=
EXTT0=
EXTT1=
EXTT2=
EXTT3=
EXTT4=
EXTT5=
EXTT6=
EXTT7=
EXTT8=
EXTT9=
PLAYORDER=
